# xmcd
#
# Track frame offsets:
# 150
# 13738
# 27766
# 41890
# 58232
# 71459
# 84000
# 99651
# 113474
# 127929
# 141771
# 156746
# 172404
#
# Disc length: 2507 seconds
#
#
# Revision: 0
# Processed by: cddbd v1.5.1PL2 Copyright (c) Steve Scherf et al.
# Submitted via: FreeRIP 2.92 
#
DISCID=b009c90d
DTITLE=MAXIM TURBOLENC - Vesele zpivanky
DYEAR=1900
DGENRE=Blues
TTITLE0=Varila mysicka kasicku
TTITLE1=Konari se zenili
TTITLE2=Delile u more
TTITLE3=At ziji duchove
TTITLE4=Jozin y bazin
TTITLE5=Babinskej
TTITLE6=Vecernicek
TTITLE7=Deset malych cernousku
TTITLE8=Kazdej den
TTITLE9=Muzickova pisnicka
TTITLE10=Jede jede masinka
TTITLE11=Delani
TTITLE12=Mysgulas
EXTD=ID3G:   0
EXTT0=
EXTT1=
EXTT2=
EXTT3=
EXTT4=
EXTT5=
EXTT6=
EXTT7=
EXTT8=
EXTT9=
EXTT10=
EXTT11=
EXTT12=
PLAYORDER=
